<svg width="1381" height="1151" xmlns="http://www.w3.org/2000/svg" xmlns:xlink="http://www.w3.org/1999/xlink" fill="#ffffff"><defs><style>
  text {
    fill: #212529;
    font-family: Helvetica Neue, Helvetica, Arial, sans-serif;
    font-size: 16px;
  }

  marker, text {
    fill-opacity: 1;
  }

  * {
    overflow: visible;
  }
</style></defs><svg x="65" y="15" width="1270" height="320" class="gate" fill="#ffffff"><g><path d="M 0 10 V 0 H 40 V 10" stroke="black" fill="white" class="sc-jSUZER hKNUyP" style="transform: scale(1);"></path><rect y="10" width="100%" height="310" stroke="black" fill="white" class="sc-iBYQkv IWFHY"></rect><text x="50%" y="20" dy="10" text-anchor="middle" font-weight="bold" pointer-events="none">gate</text></g></svg><svg x="175" y="55" width="370" height="230" class="hardware" fill="#ffffff"><g><path d="M 0 10 V 0 H 40 V 10" stroke="black" fill="white" class="sc-jSUZER hKNUyP" style="transform: scale(1);"></path><rect y="10" width="100%" height="220" stroke="black" fill="white" class="sc-iBYQkv IWFHY"></rect><text x="50%" y="20" dy="10" text-anchor="middle" font-weight="bold" pointer-events="none">hardware</text></g></svg><svg x="705" y="55" width="610" height="270" class="frontend" fill="#ffffff"><g><path d="M 0 10 V 0 H 40 V 10" stroke="black" fill="white" class="sc-jSUZER hKNUyP" style="transform: scale(1);"></path><rect y="10" width="100%" height="260" stroke="black" fill="white" class="sc-iBYQkv IWFHY"></rect><text x="50%" y="20" dy="10" text-anchor="middle" font-weight="bold" pointer-events="none">frontend</text></g></svg><svg x="715" y="255" width="200" height="40" class="MainApplication" fill="#ffffff"><g><rect width="100%" height="40" stroke="none" fill="white" class="sc-iBYQkv jtwikH"></rect><rect y="40" width="100%" height="0" stroke="none" fill="white" class="sc-iBYQkv jtwikH"></rect><svg height="40"><text x="50%" y="50%" dominant-baseline="middle" text-anchor="middle" font-weight="bold" pointer-events="none">MainApplication</text></svg><rect width="100%" height="100%" stroke="black" fill="none" class="sc-iBYQkv eGKiKB"></rect></g></svg><svg x="925" y="105" width="170" height="40" class="ComboController" fill="#ffffff"><g><rect width="100%" height="40" stroke="none" fill="white" class="sc-iBYQkv jtwikH"></rect><rect y="40" width="100%" height="0" stroke="none" fill="white" class="sc-iBYQkv jtwikH"></rect><svg height="40"><text x="50%" y="50%" dominant-baseline="middle" text-anchor="middle" font-weight="bold" pointer-events="none">ComboController</text></svg><rect width="100%" height="100%" stroke="black" fill="none" class="sc-iBYQkv eGKiKB"></rect></g></svg><svg x="945" y="255" width="120" height="40" class="SceneControl" fill="#ffffff"><g><rect width="100%" height="40" stroke="none" fill="white" class="sc-iBYQkv jtwikH"></rect><rect y="40" width="100%" height="0" stroke="none" fill="white" class="sc-iBYQkv jtwikH"></rect><svg height="40"><text x="50%" y="50%" dominant-baseline="middle" text-anchor="middle" font-weight="bold" pointer-events="none">SceneControl</text></svg><rect width="100%" height="100%" stroke="black" fill="none" class="sc-iBYQkv eGKiKB"></rect></g></svg><svg x="1015" y="185" width="150" height="40" class="UserController" fill="#ffffff"><g><rect width="100%" height="40" stroke="none" fill="white" class="sc-iBYQkv jtwikH"></rect><rect y="40" width="100%" height="0" stroke="none" fill="white" class="sc-iBYQkv jtwikH"></rect><svg height="40"><text x="50%" y="50%" dominant-baseline="middle" text-anchor="middle" font-weight="bold" pointer-events="none">UserController</text></svg><rect width="100%" height="100%" stroke="black" fill="none" class="sc-iBYQkv eGKiKB"></rect></g></svg><svg x="855" y="185" width="150" height="40" class="AdminController" fill="#ffffff"><g><rect width="100%" height="40" stroke="none" fill="white" class="sc-iBYQkv jtwikH"></rect><rect y="40" width="100%" height="0" stroke="none" fill="white" class="sc-iBYQkv jtwikH"></rect><svg height="40"><text x="50%" y="50%" dominant-baseline="middle" text-anchor="middle" font-weight="bold" pointer-events="none">AdminController</text></svg><rect width="100%" height="100%" stroke="black" fill="none" class="sc-iBYQkv eGKiKB"></rect></g></svg><svg x="325" y="345" width="690" height="220" class="terminal" fill="#ffffff"><g><path d="M 0 10 V 0 H 40 V 10" stroke="black" fill="white" class="sc-jSUZER hKNUyP" style="transform: scale(1);"></path><rect y="10" width="100%" height="210" stroke="black" fill="white" class="sc-iBYQkv IWFHY"></rect><text x="50%" y="20" dy="10" text-anchor="middle" font-weight="bold" pointer-events="none">terminal</text></g></svg><svg x="455" y="415" width="440" height="130" class="Terminal" fill="#ffffff"><g><rect width="100%" height="40" stroke="none" fill="white" class="sc-iBYQkv jtwikH"></rect><rect y="40" width="100%" height="90" stroke="none" fill="white" class="sc-iBYQkv jtwikH"></rect><svg height="40"><text x="50%" y="50%" dominant-baseline="middle" text-anchor="middle" font-weight="bold" pointer-events="none">Terminal</text></svg><rect width="100%" height="100%" stroke="black" fill="none" class="sc-iBYQkv eGKiKB"></rect><path d="M 0 40 H 440" stroke="black" fill="white" class="sc-jSUZER hKNUyP"></path></g></svg><svg x="455.5" y="455.5" width="439" height="30" class="terminal()" fill="#ffffff"><g><rect width="100%" height="100%" stroke="none" fill="white" class="sc-iBYQkv jtwikH"></rect><text x="10" y="50%" dominant-baseline="middle" text-anchor="start" font-weight="normal" pointer-events="none">terminal()</text></g></svg><svg x="455.5" y="485.5" width="439" height="30" class="startUserProcess(File, String, int)" fill="#ffffff"><g><rect width="100%" height="100%" stroke="none" fill="white" class="sc-iBYQkv jtwikH"></rect><text x="10" y="50%" dominant-baseline="middle" text-anchor="start" font-weight="normal" pointer-events="none">startUserProcess(File, String, int)</text></g></svg><svg x="455.5" y="515.5" width="439" height="30" class="initializeBlueprint(File)" fill="#ffffff"><g><rect width="100%" height="100%" stroke="none" fill="white" class="sc-iBYQkv jtwikH"></rect><text x="10" y="50%" dominant-baseline="middle" text-anchor="start" font-weight="normal" pointer-events="none">initializeBlueprint(File)</text></g></svg><svg x="15" y="585" width="1350" height="550" class="ground" fill="#ffffff"><g><path d="M 0 10 V 0 H 40 V 10" stroke="black" fill="white" class="sc-jSUZER hKNUyP" style="transform: scale(1);"></path><rect y="10" width="100%" height="540" stroke="black" fill="white" class="sc-iBYQkv IWFHY"></rect><text x="50%" y="20" dy="10" text-anchor="middle" font-weight="bold" pointer-events="none">ground</text></g></svg><svg x="25" y="625" width="660" height="500" class="datapreparation" fill="#ffffff"><g><path d="M 0 10 V 0 H 40 V 10" stroke="black" fill="white" class="sc-jSUZER hKNUyP" style="transform: scale(1);"></path><rect y="10" width="100%" height="490" stroke="black" fill="white" class="sc-iBYQkv IWFHY"></rect><text x="50%" y="20" dy="10" text-anchor="middle" font-weight="bold" pointer-events="none">datapreparation</text></g></svg><svg x="315" y="705" width="170" height="40" class="FileProcessing" fill="#ffffff"><g><rect width="100%" height="40" stroke="none" fill="white" class="sc-iBYQkv jtwikH"></rect><rect y="40" width="100%" height="0" stroke="none" fill="white" class="sc-iBYQkv jtwikH"></rect><svg height="40"><text x="50%" y="50%" dominant-baseline="middle" text-anchor="middle" font-weight="bold" pointer-events="none">FileProcessing</text></svg><rect width="100%" height="100%" stroke="black" fill="none" class="sc-iBYQkv eGKiKB"></rect></g></svg><svg x="35" y="645" width="240" height="160" class="Triad Record" fill="#ffffff"><g><rect width="100%" height="40" stroke="none" fill="white" class="sc-iBYQkv jtwikH"></rect><rect y="40" width="100%" height="120" stroke="none" fill="white" class="sc-iBYQkv jtwikH"></rect><svg height="40"><text x="50%" y="50%" dominant-baseline="middle" text-anchor="middle" font-weight="bold" pointer-events="none">Triad &lt;&lt;Record&gt;&gt;</text></svg><rect width="100%" height="100%" stroke="black" fill="none" class="sc-iBYQkv eGKiKB"></rect><path d="M 0 40 H 240" stroke="black" fill="white" class="sc-jSUZER hKNUyP"></path></g></svg><svg x="35.5" y="685.5" width="239" height="30" class="events: ArrayListEvent" fill="#ffffff"><g><rect width="100%" height="100%" stroke="none" fill="white" class="sc-iBYQkv jtwikH"></rect><text x="10" y="50%" dominant-baseline="middle" text-anchor="start" font-weight="normal" pointer-events="none">events: ArrayList&lt;Event&gt;</text></g></svg><svg x="35.5" y="715.5" width="239" height="30" class="tasks: ArrayListTask" fill="#ffffff"><g><rect width="100%" height="100%" stroke="none" fill="white" class="sc-iBYQkv jtwikH"></rect><text x="10" y="50%" dominant-baseline="middle" text-anchor="start" font-weight="normal" pointer-events="none">tasks: ArrayList&lt;Task&gt;</text></g></svg><svg x="35.5" y="745.5" width="239" height="30" class="flows: ArrayListFlow" fill="#ffffff"><g><rect width="100%" height="100%" stroke="none" fill="white" class="sc-iBYQkv jtwikH"></rect><text x="10" y="50%" dominant-baseline="middle" text-anchor="start" font-weight="normal" pointer-events="none">flows: ArrayList&lt;Flow&gt;</text></g></svg><svg x="35.5" y="775.5" width="239" height="30" class="gateways: ArrayListGateway" fill="#ffffff"><g><rect width="100%" height="100%" stroke="none" fill="white" class="sc-iBYQkv jtwikH"></rect><text x="10" y="50%" dominant-baseline="middle" text-anchor="start" font-weight="normal" pointer-events="none">gateways: ArrayList&lt;Gateway&gt;</text></g></svg><svg x="35" y="875" width="110" height="140" class="Event" fill="#ffffff"><g><rect width="100%" height="40" stroke="none" fill="white" class="sc-iBYQkv jtwikH"></rect><rect y="40" width="100%" height="100" stroke="none" fill="white" class="sc-iBYQkv jtwikH"></rect><svg height="40"><text x="50%" y="50%" dominant-baseline="middle" text-anchor="middle" font-weight="bold" pointer-events="none">Event</text></svg><rect width="100%" height="100%" stroke="black" fill="none" class="sc-iBYQkv eGKiKB"></rect><path d="M 0 40 H 110" stroke="black" fill="white" class="sc-jSUZER hKNUyP"></path></g></svg><svg x="35.5" y="915.5" width="109" height="40" class="id: String" fill="#ffffff"><g><rect width="100%" height="100%" stroke="none" fill="white" class="sc-iBYQkv jtwikH"></rect><text x="10" y="50%" dominant-baseline="middle" text-anchor="start" font-weight="normal" pointer-events="none">id: String</text></g></svg><svg x="35.5" y="955.5" width="109" height="30" class="name: String" fill="#ffffff"><g><rect width="100%" height="100%" stroke="none" fill="white" class="sc-iBYQkv jtwikH"></rect><text x="10" y="50%" dominant-baseline="middle" text-anchor="start" font-weight="normal" pointer-events="none">name: String</text></g></svg><svg x="35.5" y="985.5" width="109" height="30" class="type: String" fill="#ffffff"><g><rect width="100%" height="100%" stroke="none" fill="white" class="sc-iBYQkv jtwikH"></rect><text x="10" y="50%" dominant-baseline="middle" text-anchor="start" font-weight="normal" pointer-events="none">type: String</text></g></svg><svg x="445" y="915" width="220" height="200" class="Task" fill="#ffffff"><g><rect width="100%" height="40" stroke="none" fill="white" class="sc-iBYQkv jtwikH"></rect><rect y="40" width="100%" height="160" stroke="none" fill="white" class="sc-iBYQkv jtwikH"></rect><svg height="40"><text x="50%" y="50%" dominant-baseline="middle" text-anchor="middle" font-weight="bold" pointer-events="none">Task</text></svg><rect width="100%" height="100%" stroke="black" fill="none" class="sc-iBYQkv eGKiKB"></rect><path d="M 0 40 H 220" stroke="black" fill="white" class="sc-jSUZER hKNUyP"></path></g></svg><svg x="445.5" y="955.5" width="219" height="40" class="id: String" fill="#ffffff"><g><rect width="100%" height="100%" stroke="none" fill="white" class="sc-iBYQkv jtwikH"></rect><text x="10" y="50%" dominant-baseline="middle" text-anchor="start" font-weight="normal" pointer-events="none">id: String</text></g></svg><svg x="445.5" y="995.5" width="219" height="30" class="name: String" fill="#ffffff"><g><rect width="100%" height="100%" stroke="none" fill="white" class="sc-iBYQkv jtwikH"></rect><text x="10" y="50%" dominant-baseline="middle" text-anchor="start" font-weight="normal" pointer-events="none">name: String</text></g></svg><svg x="445.5" y="1025.5" width="219" height="30" class="operations: OperationTable" fill="#ffffff"><g><rect width="100%" height="100%" stroke="none" fill="white" class="sc-iBYQkv jtwikH"></rect><text x="10" y="50%" dominant-baseline="middle" text-anchor="start" font-weight="normal" pointer-events="none">operations: OperationTable</text></g></svg><svg x="445.5" y="1055.5" width="219" height="30" class="inAcceptance: boolean" fill="#ffffff"><g><rect width="100%" height="100%" stroke="none" fill="white" class="sc-iBYQkv jtwikH"></rect><text x="10" y="50%" dominant-baseline="middle" text-anchor="start" font-weight="normal" pointer-events="none">inAcceptance: boolean</text></g></svg><svg x="445.5" y="1085.5" width="219" height="30" class="breachStatement: String" fill="#ffffff"><g><rect width="100%" height="100%" stroke="none" fill="white" class="sc-iBYQkv jtwikH"></rect><text x="10" y="50%" dominant-baseline="middle" text-anchor="start" font-weight="normal" pointer-events="none">breachStatement: String</text></g></svg><svg x="155" y="875" width="150" height="140" class="Flow" fill="#ffffff"><g><rect width="100%" height="40" stroke="none" fill="white" class="sc-iBYQkv jtwikH"></rect><rect y="40" width="100%" height="100" stroke="none" fill="white" class="sc-iBYQkv jtwikH"></rect><svg height="40"><text x="50%" y="50%" dominant-baseline="middle" text-anchor="middle" font-weight="bold" pointer-events="none">Flow</text></svg><rect width="100%" height="100%" stroke="black" fill="none" class="sc-iBYQkv eGKiKB"></rect><path d="M 0 40 H 150" stroke="black" fill="white" class="sc-jSUZER hKNUyP"></path></g></svg><svg x="155.5" y="915.5" width="149" height="40" class="id: String" fill="#ffffff"><g><rect width="100%" height="100%" stroke="none" fill="white" class="sc-iBYQkv jtwikH"></rect><text x="10" y="50%" dominant-baseline="middle" text-anchor="start" font-weight="normal" pointer-events="none">id: String</text></g></svg><svg x="155.5" y="955.5" width="149" height="30" class="sourceRef: String" fill="#ffffff"><g><rect width="100%" height="100%" stroke="none" fill="white" class="sc-iBYQkv jtwikH"></rect><text x="10" y="50%" dominant-baseline="middle" text-anchor="start" font-weight="normal" pointer-events="none">sourceRef: String</text></g></svg><svg x="155.5" y="985.5" width="149" height="30" class="targetRef: String" fill="#ffffff"><g><rect width="100%" height="100%" stroke="none" fill="white" class="sc-iBYQkv jtwikH"></rect><text x="10" y="50%" dominant-baseline="middle" text-anchor="start" font-weight="normal" pointer-events="none">targetRef: String</text></g></svg><svg x="325" y="1035" width="60" height="40" class="EFT" fill="#ffffff"><g><rect width="100%" height="40" stroke="none" fill="white" class="sc-iBYQkv jtwikH"></rect><rect y="40" width="100%" height="0" stroke="none" fill="white" class="sc-iBYQkv jtwikH"></rect><svg height="40"><text x="50%" y="50%" dominant-baseline="middle" text-anchor="middle" font-weight="bold" pointer-events="none">EFT</text></svg><rect width="100%" height="100%" stroke="black" fill="none" class="sc-iBYQkv eGKiKB"></rect></g></svg><svg x="475" y="775" width="200" height="110" class="OperationTable" fill="#ffffff"><g><rect width="100%" height="40" stroke="none" fill="white" class="sc-iBYQkv jtwikH"></rect><rect y="40" width="100%" height="70" stroke="none" fill="white" class="sc-iBYQkv jtwikH"></rect><svg height="40"><text x="50%" y="50%" dominant-baseline="middle" text-anchor="middle" font-weight="bold" pointer-events="none">OperationTable</text></svg><rect width="100%" height="100%" stroke="black" fill="none" class="sc-iBYQkv eGKiKB"></rect><path d="M 0 40 H 200" stroke="black" fill="white" class="sc-jSUZER hKNUyP"></path></g></svg><svg x="475.5" y="815.5" width="199" height="40" class="operationName: String[]" fill="#ffffff"><g><rect width="100%" height="100%" stroke="none" fill="white" class="sc-iBYQkv jtwikH"></rect><text x="10" y="50%" dominant-baseline="middle" text-anchor="start" font-weight="normal" pointer-events="none">operationName: String[]</text></g></svg><svg x="475.5" y="855.5" width="199" height="30" class="operationValue: short[]" fill="#ffffff"><g><rect width="100%" height="100%" stroke="none" fill="white" class="sc-iBYQkv jtwikH"></rect><text x="10" y="50%" dominant-baseline="middle" text-anchor="start" font-weight="normal" pointer-events="none">operationValue: short[]</text></g></svg><svg x="315" y="875" width="120" height="110" class="Gateway" fill="#ffffff"><g><rect width="100%" height="40" stroke="none" fill="white" class="sc-iBYQkv jtwikH"></rect><rect y="40" width="100%" height="70" stroke="none" fill="white" class="sc-iBYQkv jtwikH"></rect><svg height="40"><text x="50%" y="50%" dominant-baseline="middle" text-anchor="middle" font-weight="bold" pointer-events="none">Gateway</text></svg><rect width="100%" height="100%" stroke="black" fill="none" class="sc-iBYQkv eGKiKB"></rect><path d="M 0 40 H 120" stroke="black" fill="white" class="sc-jSUZER hKNUyP"></path></g></svg><svg x="315.5" y="915.5" width="119" height="40" class="id: String" fill="#ffffff"><g><rect width="100%" height="100%" stroke="none" fill="white" class="sc-iBYQkv jtwikH"></rect><text x="10" y="50%" dominant-baseline="middle" text-anchor="start" font-weight="normal" pointer-events="none">id: String</text></g></svg><svg x="315.5" y="955.5" width="119" height="30" class="type: boolean" fill="#ffffff"><g><rect width="100%" height="100%" stroke="none" fill="white" class="sc-iBYQkv jtwikH"></rect><text x="10" y="50%" dominant-baseline="middle" text-anchor="start" font-weight="normal" pointer-events="none">type: boolean</text></g></svg><svg x="875" y="935" width="200" height="100" class="ccp" fill="#ffffff"><g><path d="M 0 10 V 0 H 40 V 10" stroke="black" fill="white" class="sc-jSUZER hKNUyP" style="transform: scale(1);"></path><rect y="10" width="100%" height="90" stroke="black" fill="white" class="sc-iBYQkv IWFHY"></rect><text x="50%" y="20" dy="10" text-anchor="middle" font-weight="bold" pointer-events="none">ccp</text></g></svg><svg x="875" y="795" width="200" height="100" class="pm" fill="#ffffff"><g><path d="M 0 10 V 0 H 40 V 10" stroke="black" fill="white" class="sc-jSUZER hKNUyP" style="transform: scale(1);"></path><rect y="10" width="100%" height="90" stroke="black" fill="white" class="sc-iBYQkv IWFHY"></rect><text x="50%" y="20" dy="10" text-anchor="middle" font-weight="bold" pointer-events="none">pm</text></g></svg><svg x="875" y="635" width="200" height="100" class="statistic" fill="#ffffff"><g><path d="M 0 10 V 0 H 40 V 10" stroke="black" fill="white" class="sc-jSUZER hKNUyP" style="transform: scale(1);"></path><rect y="10" width="100%" height="90" stroke="black" fill="white" class="sc-iBYQkv IWFHY"></rect><text x="50%" y="20" dy="10" text-anchor="middle" font-weight="bold" pointer-events="none">statistic</text></g></svg><svg x="545" y="160" width="160" height="31" class="" fill="#ffffff"><g><polyline points="0 10,160 10" stroke-width="1" marker-end="url(#marker-444b4091-0155-476b-b445-0fad77c11e5a)" stroke="black" fill="none" class="sc-eDvSVe hxBThM"></polyline><text x="8" y="10" dy="21" text-anchor="start" pointer-events="none"></text><text x="152" y="10" dy="21" text-anchor="end" pointer-events="none"></text><text x="8" y="10" dy="-10" text-anchor="start" pointer-events="none"></text><text x="152" y="10" dy="-10" text-anchor="end" pointer-events="none"></text></g></svg><svg x="960" y="145" width="10" height="41" class="" fill="#ffffff"><g><marker id="marker-3299018f-10b3-4f62-8897-f331f618c683" viewBox="0 0 30 30" markerWidth="30" markerHeight="30" refX="30" refY="15" orient="auto" markerUnits="strokeWidth" style="transform: scale(1);"><path d="M0,15 L15,22 L30,15 L15,8 z" stroke="black" fill="white" class="sc-jSUZER hKNUyP"></path></marker><polyline points="5 40,5 0" stroke-width="1" marker-end="url(#marker-3299018f-10b3-4f62-8897-f331f618c683)" stroke="black" fill="none" class="sc-eDvSVe hxBThM"></polyline><text x="5" y="32" dx="5" text-anchor="start" pointer-events="none"></text><text x="5" y="31" dx="5" dy="10" text-anchor="start" pointer-events="none"></text><text x="5" y="32" dx="-5" text-anchor="end" pointer-events="none"></text><text x="5" y="31" dx="-5" dy="10" text-anchor="end" pointer-events="none"></text></g></svg><svg x="1050" y="145" width="10" height="41" class="" fill="#ffffff"><g><marker id="marker-b18b9cc8-2471-4932-9679-cc5be2fe1a9d" viewBox="0 0 30 30" markerWidth="30" markerHeight="30" refX="30" refY="15" orient="auto" markerUnits="strokeWidth" style="transform: scale(1);"><path d="M0,15 L15,22 L30,15 L15,8 z" stroke="black" fill="white" class="sc-jSUZER hKNUyP"></path></marker><polyline points="5 40,5 0" stroke-width="1" marker-end="url(#marker-b18b9cc8-2471-4932-9679-cc5be2fe1a9d)" stroke="black" fill="none" class="sc-eDvSVe hxBThM"></polyline><text x="5" y="32" dx="5" text-anchor="start" pointer-events="none"></text><text x="5" y="31" dx="5" dy="10" text-anchor="start" pointer-events="none"></text><text x="5" y="32" dx="-5" text-anchor="end" pointer-events="none"></text><text x="5" y="31" dx="-5" dy="10" text-anchor="end" pointer-events="none"></text></g></svg><svg x="1035" y="225" width="10" height="30" class="" fill="#ffffff"><g><polyline points="5 30,5 0" stroke-width="1" marker-end="url(#marker-9d114e23-457c-486a-a00b-1444e4b8a727)" stroke="black" fill="none" class="sc-eDvSVe hxBThM"></polyline><text x="5" y="22" dx="5" text-anchor="start" pointer-events="none"></text><text x="5" y="8" dx="5" dy="10" text-anchor="start" pointer-events="none"></text><text x="5" y="22" dx="-5" text-anchor="end" pointer-events="none"></text><text x="5" y="8" dx="-5" dy="10" text-anchor="end" pointer-events="none"></text></g></svg><svg x="970" y="225" width="10" height="30" class="" fill="#ffffff"><g><polyline points="5 30,5 0" stroke-width="1" marker-end="url(#marker-81c6addb-dee9-4e71-8318-733393ad0ea5)" stroke="black" fill="none" class="sc-eDvSVe hxBThM"></polyline><text x="5" y="22" dx="5" text-anchor="start" pointer-events="none"></text><text x="5" y="8" dx="5" dy="10" text-anchor="start" pointer-events="none"></text><text x="5" y="22" dx="-5" text-anchor="end" pointer-events="none"></text><text x="5" y="8" dx="-5" dy="10" text-anchor="end" pointer-events="none"></text></g></svg><svg x="915" y="265" width="30" height="31" class="" fill="#ffffff"><g><polyline points="30 10,0 10" stroke-width="1" marker-end="url(#marker-c5486260-1949-4d3a-b627-d0eb93019e9a)" stroke="black" fill="none" class="sc-eDvSVe hxBThM"></polyline><text x="22" y="10" dy="21" text-anchor="end" pointer-events="none"></text><text x="8" y="10" dy="21" text-anchor="start" pointer-events="none"></text><text x="22" y="10" dy="-10" text-anchor="end" pointer-events="none"></text><text x="8" y="10" dy="-10" text-anchor="start" pointer-events="none"></text></g></svg><svg x="730.359375" y="295" width="79.640625" height="130.65625" class="" fill="#ffffff"><g><polyline points="74.640625 0,74.640625 120" stroke-width="1" marker-end="url(#marker-cec6a9ed-5587-485d-a9eb-ff09d08588e1)" stroke="black" fill="none" class="sc-eDvSVe hxBThM"></polyline><text x="74.640625" y="8" dx="5" dy="10" text-anchor="start" pointer-events="none"></text><text x="74.640625" y="112" dx="5" text-anchor="start" pointer-events="none"></text><text x="74.640625" y="8" dx="-5" dy="10" text-anchor="end" pointer-events="none">Terminal()</text><text x="74.640625" y="112" dx="-5" text-anchor="end" pointer-events="none">main()</text></g></svg><svg x="621.6875" y="195" width="233.3125" height="230.65625" class="" fill="#ffffff"><g><polyline points="233.3125 10,53.3125 10,53.3125 220" stroke-width="1" marker-end="url(#marker-4911eea1-0826-471b-8c14-a59fba32751a)" stroke="black" fill="none" class="sc-eDvSVe hxBThM"></polyline><text x="225.3125" y="10" dy="21" text-anchor="end" pointer-events="none"></text><text x="53.3125" y="212" dx="5" text-anchor="start" pointer-events="none"></text><text x="225.3125" y="10" dy="-10" text-anchor="end" pointer-events="none">initializeBlueprint()</text><text x="53.3125" y="212" dx="-5" text-anchor="end" pointer-events="none">setup()</text></g></svg><svg x="895" y="195" width="409.828125" height="306" class="" fill="#ffffff"><g><polyline points="270 10,310 10,310 285,0 285" stroke-width="1" marker-end="url(#marker-db51ddcd-b53b-43a2-8456-39847aa3e7cf)" stroke="black" fill="none" class="sc-eDvSVe hxBThM"></polyline><text x="278" y="10" dy="21" text-anchor="start" pointer-events="none"></text><text x="8" y="285" dy="21" text-anchor="start" pointer-events="none"></text><text x="278" y="10" dy="-10" text-anchor="start" pointer-events="none">startUserProcess()</text><text x="8" y="285" dy="-10" text-anchor="start" pointer-events="none">process()</text></g></svg><svg x="334.125" y="470" width="202.703125" height="245.65625" class="" fill="#ffffff"><g><polyline points="65.875 235,65.875 10,120.875 10" stroke-width="1" marker-end="url(#marker-db9873cb-37d0-4442-adf3-634675ebfcd3)" stroke="black" fill="none" class="sc-eDvSVe hxBThM"></polyline><text x="65.875" y="227" dx="5" text-anchor="start" pointer-events="none">startUserProcess()</text><text x="112.875" y="10" dy="21" text-anchor="end" pointer-events="none"></text><text x="65.875" y="227" dx="-5" text-anchor="end" pointer-events="none"></text><text x="112.875" y="10" dy="-10" text-anchor="end" pointer-events="none">FileProcessing()</text></g></svg><svg x="275" y="715" width="40" height="31" class="" fill="#ffffff"><g><polyline points="40 10,0 10" stroke-width="1" marker-end="url(#marker-3fc47400-c24e-479e-b98b-75cd0bb4d59a)" stroke="black" fill="none" class="sc-eDvSVe hxBThM"></polyline><text x="32" y="10" dy="21" text-anchor="end" pointer-events="none"></text><text x="8" y="10" dy="21" text-anchor="start" pointer-events="none"></text><text x="32" y="10" dy="-10" text-anchor="end" pointer-events="none"></text><text x="8" y="10" dy="-10" text-anchor="start" pointer-events="none"></text></g></svg><svg x="85" y="745" width="320" height="130" class="" fill="#ffffff"><g><polyline points="5 130,5 65,315 65,315 0" stroke-width="1" marker-end="url(#marker-37310c7e-de38-42f3-a127-fb044c88242c)" stroke="black" fill="none" class="sc-eDvSVe hxBThM"></polyline><text x="5" y="122" dx="5" text-anchor="start" pointer-events="none"></text><text x="315" y="8" dx="5" dy="10" text-anchor="start" pointer-events="none"></text><text x="5" y="122" dx="-5" text-anchor="end" pointer-events="none"></text><text x="315" y="8" dx="-5" dy="10" text-anchor="end" pointer-events="none"></text></g></svg><svg x="225" y="745" width="180" height="130" class="" fill="#ffffff"><g><polyline points="5 130,5 65,175 65,175 0" stroke-width="1" marker-end="url(#marker-78737d04-4f11-4f13-b155-59d1613b4c59)" stroke="black" fill="none" class="sc-eDvSVe hxBThM"></polyline><text x="5" y="122" dx="5" text-anchor="start" pointer-events="none"></text><text x="175" y="8" dx="5" dy="10" text-anchor="start" pointer-events="none"></text><text x="5" y="122" dx="-5" text-anchor="end" pointer-events="none"></text><text x="175" y="8" dx="-5" dy="10" text-anchor="end" pointer-events="none"></text></g></svg><svg x="460" y="745" width="10" height="170" class="" fill="#ffffff"><g><polyline points="5 170,5 0" stroke-width="1" marker-end="url(#marker-edcd1e03-d512-4d49-8846-a36ea171ddf2)" stroke="black" fill="none" class="sc-eDvSVe hxBThM"></polyline><text x="5" y="162" dx="5" text-anchor="start" pointer-events="none"></text><text x="5" y="8" dx="5" dy="10" text-anchor="start" pointer-events="none"></text><text x="5" y="162" dx="-5" text-anchor="end" pointer-events="none"></text><text x="5" y="8" dx="-5" dy="10" text-anchor="end" pointer-events="none"></text></g></svg><svg x="85" y="1015" width="240" height="61" class="" fill="#ffffff"><g><marker id="marker-1519d9ea-3cae-4e36-99a4-3373b19278f8" viewBox="0 0 30 30" markerWidth="30" markerHeight="30" refX="30" refY="15" orient="auto" markerUnits="strokeWidth" style="transform: scale(1);"><path d="M0,15 L15,22 L30,15 L15,8 z" stroke="black" fill="white" class="sc-jSUZER hKNUyP"></path></marker><polyline points="5 0,5 40,240 40" stroke-width="1" marker-end="url(#marker-1519d9ea-3cae-4e36-99a4-3373b19278f8)" stroke="black" fill="none" class="sc-eDvSVe hxBThM"></polyline><text x="5" y="8" dx="5" dy="10" text-anchor="start" pointer-events="none"></text><text x="209" y="40" dy="21" text-anchor="end" pointer-events="none"></text><text x="5" y="8" dx="-5" dy="10" text-anchor="end" pointer-events="none"></text><text x="209" y="40" dy="-10" text-anchor="end" pointer-events="none"></text></g></svg><svg x="225" y="1015" width="100" height="61" class="" fill="#ffffff"><g><marker id="marker-f19f0d6c-00d3-47c3-8c9c-20b5fbade98c" viewBox="0 0 30 30" markerWidth="30" markerHeight="30" refX="30" refY="15" orient="auto" markerUnits="strokeWidth" style="transform: scale(1);"><path d="M0,15 L15,22 L30,15 L15,8 z" stroke="black" fill="white" class="sc-jSUZER hKNUyP"></path></marker><polyline points="5 0,5 40,100 40" stroke-width="1" marker-end="url(#marker-f19f0d6c-00d3-47c3-8c9c-20b5fbade98c)" stroke="black" fill="none" class="sc-eDvSVe hxBThM"></polyline><text x="5" y="8" dx="5" dy="10" text-anchor="start" pointer-events="none"></text><text x="69" y="40" dy="21" text-anchor="end" pointer-events="none"></text><text x="5" y="8" dx="-5" dy="10" text-anchor="end" pointer-events="none"></text><text x="69" y="40" dy="-10" text-anchor="end" pointer-events="none"></text></g></svg><svg x="370" y="745" width="10" height="130" class="" fill="#ffffff"><g><polyline points="5 130,5 0" stroke-width="1" marker-end="url(#marker-03bcdc90-d422-4a6c-98f3-2723ee27a8be)" stroke="black" fill="none" class="sc-eDvSVe hxBThM"></polyline><text x="5" y="122" dx="5" text-anchor="start" pointer-events="none"></text><text x="5" y="8" dx="5" dy="10" text-anchor="start" pointer-events="none"></text><text x="5" y="122" dx="-5" text-anchor="end" pointer-events="none"></text><text x="5" y="8" dx="-5" dy="10" text-anchor="end" pointer-events="none"></text></g></svg><svg x="350" y="985" width="10" height="50" class="" fill="#ffffff"><g><marker id="marker-91474974-13df-4a66-aeeb-62412f778362" viewBox="0 0 30 30" markerWidth="30" markerHeight="30" refX="30" refY="15" orient="auto" markerUnits="strokeWidth" style="transform: scale(1);"><path d="M0,15 L15,22 L30,15 L15,8 z" stroke="black" fill="white" class="sc-jSUZER hKNUyP"></path></marker><polyline points="5 0,5 50" stroke-width="1" marker-end="url(#marker-91474974-13df-4a66-aeeb-62412f778362)" stroke="black" fill="none" class="sc-eDvSVe hxBThM"></polyline><text x="5" y="8" dx="5" dy="10" text-anchor="start" pointer-events="none"></text><text x="5" y="19" dx="5" text-anchor="start" pointer-events="none"></text><text x="5" y="8" dx="-5" dy="10" text-anchor="end" pointer-events="none"></text><text x="5" y="19" dx="-5" text-anchor="end" pointer-events="none"></text></g></svg><svg x="565" y="885" width="10" height="30" class="" fill="#ffffff"><g><polyline points="5 30,5 0" stroke-width="1" marker-end="url(#marker-f2b4d0d0-7d0c-4967-87a1-dce1336c8c5d)" stroke="black" fill="none" class="sc-eDvSVe hxBThM"></polyline><text x="5" y="22" dx="5" text-anchor="start" pointer-events="none"></text><text x="5" y="8" dx="5" dy="10" text-anchor="start" pointer-events="none"></text><text x="5" y="22" dx="-5" text-anchor="end" pointer-events="none"></text><text x="5" y="8" dx="-5" dy="10" text-anchor="end" pointer-events="none"></text></g></svg><svg x="385" y="1045" width="60" height="31" class="" fill="#ffffff"><g><marker id="marker-7f5f89c4-647b-4d33-82b2-c1eca1d7dd26" viewBox="0 0 30 30" markerWidth="30" markerHeight="30" refX="30" refY="15" orient="auto" markerUnits="strokeWidth" style="transform: scale(1);"><path d="M0,15 L15,22 L30,15 L15,8 z" stroke="black" fill="white" class="sc-jSUZER hKNUyP"></path></marker><polyline points="60 10,0 10" stroke-width="1" marker-end="url(#marker-7f5f89c4-647b-4d33-82b2-c1eca1d7dd26)" stroke="black" fill="none" class="sc-eDvSVe hxBThM"></polyline><text x="52" y="10" dy="21" text-anchor="end" pointer-events="none"></text><text x="31" y="10" dy="21" text-anchor="start" pointer-events="none"></text><text x="52" y="10" dy="-10" text-anchor="end" pointer-events="none"></text><text x="31" y="10" dy="-10" text-anchor="start" pointer-events="none"></text></g></svg></svg>