<svg width="1331" height="1241" xmlns="http://www.w3.org/2000/svg" xmlns:xlink="http://www.w3.org/1999/xlink" fill="#ffffff"><defs><style>
  text {
    fill: #212529;
    font-family: Helvetica Neue, Helvetica, Arial, sans-serif;
    font-size: 16px;
  }

  marker, text {
    fill-opacity: 1;
  }

  * {
    overflow: visible;
  }
</style></defs><svg x="15" y="15" width="1300" height="390" class="gate" fill="#ffffff"><g><path d="M 0 10 V 0 H 40 V 10" stroke="black" fill="white" class="sc-iGgWBj fYmGgq" style="transform: scale(1);"></path><rect y="10" width="100%" height="380" stroke="black" fill="white" class="sc-kAyceB ldFMTf"></rect><text x="50%" y="20" dy="10" text-anchor="middle" font-weight="bold" pointer-events="none">gate</text></g></svg><svg x="25" y="35" width="580" height="360" class="hardware" fill="#ffffff"><g><path d="M 0 10 V 0 H 40 V 10" stroke="black" fill="white" class="sc-iGgWBj fYmGgq" style="transform: scale(1);"></path><rect y="10" width="100%" height="350" stroke="black" fill="white" class="sc-kAyceB ldFMTf"></rect><text x="50%" y="20" dy="10" text-anchor="middle" font-weight="bold" pointer-events="none">hardware</text></g></svg><svg x="415" y="285" width="130" height="80" class="HardwareGate" fill="#ffffff"><g><rect width="100%" height="40" stroke="none" fill="white" class="sc-kAyceB haGKns"></rect><rect y="40" width="100%" height="40" stroke="none" fill="white" class="sc-kAyceB haGKns"></rect><svg height="40"><text x="50%" y="50%" dominant-baseline="middle" text-anchor="middle" font-weight="bold" pointer-events="none">HardwareGate</text></svg><rect width="100%" height="100%" stroke="black" fill="none" class="sc-kAyceB izLLBO"></rect><path d="M 0 40 H 130" stroke="black" fill="white" class="sc-iGgWBj fYmGgq"></path></g></svg><svg x="415.5" y="325.5" width="129" height="40" class="SENS: SensIn" fill="#ffffff"><g><rect width="100%" height="100%" stroke="none" fill="white" class="sc-kAyceB haGKns"></rect><text x="10" y="50%" dominant-baseline="middle" text-anchor="start" font-weight="normal" pointer-events="none">SENS: SensIn</text></g></svg><svg x="55" y="65" width="190" height="290" class="SensIn Record" fill="#ffffff"><g><rect width="100%" height="40" stroke="none" fill="white" class="sc-kAyceB haGKns"></rect><rect y="40" width="100%" height="250" stroke="none" fill="white" class="sc-kAyceB haGKns"></rect><svg height="40"><text x="50%" y="50%" dominant-baseline="middle" text-anchor="middle" font-weight="bold" pointer-events="none">SensIn &lt;&lt;Record&gt;&gt;</text></svg><rect width="100%" height="100%" stroke="black" fill="none" class="sc-kAyceB izLLBO"></rect><path d="M 0 40 H 190" stroke="black" fill="white" class="sc-iGgWBj fYmGgq"></path></g></svg><svg x="55.5" y="105.5" width="189" height="40" class="TMP: ArrayListFloat" fill="#ffffff"><g><rect width="100%" height="100%" stroke="none" fill="white" class="sc-kAyceB haGKns"></rect><text x="10" y="50%" dominant-baseline="middle" text-anchor="start" font-weight="normal" pointer-events="none">TMP: ArrayList&lt;Float&gt;</text></g></svg><svg x="55.5" y="145.5" width="189" height="30" class="VIB: ArrayListFloat" fill="#ffffff"><g><rect width="100%" height="100%" stroke="none" fill="white" class="sc-kAyceB haGKns"></rect><text x="10" y="50%" dominant-baseline="middle" text-anchor="start" font-weight="normal" pointer-events="none">VIB: ArrayList&lt;Float&gt;</text></g></svg><svg x="55.5" y="175.5" width="189" height="30" class="MIC: ArrayListShort" fill="#ffffff"><g><rect width="100%" height="100%" stroke="none" fill="white" class="sc-kAyceB haGKns"></rect><text x="10" y="50%" dominant-baseline="middle" text-anchor="start" font-weight="normal" pointer-events="none">MIC: ArrayList&lt;Short&gt;</text></g></svg><svg x="55.5" y="205.5" width="189" height="30" class="CP1: ArrayListLong" fill="#ffffff"><g><rect width="100%" height="100%" stroke="none" fill="white" class="sc-kAyceB haGKns"></rect><text x="10" y="50%" dominant-baseline="middle" text-anchor="start" font-weight="normal" pointer-events="none">CP1: ArrayList&lt;Long&gt;</text></g></svg><svg x="55.5" y="235.5" width="189" height="30" class="CP2: ArrayListLong" fill="#ffffff"><g><rect width="100%" height="100%" stroke="none" fill="white" class="sc-kAyceB haGKns"></rect><text x="10" y="50%" dominant-baseline="middle" text-anchor="start" font-weight="normal" pointer-events="none">CP2: ArrayList&lt;Long&gt;</text></g></svg><svg x="55.5" y="265.5" width="189" height="30" class="CP3: ArrayListLong" fill="#ffffff"><g><rect width="100%" height="100%" stroke="none" fill="white" class="sc-kAyceB haGKns"></rect><text x="10" y="50%" dominant-baseline="middle" text-anchor="start" font-weight="normal" pointer-events="none">CP3: ArrayList&lt;Long&gt;</text></g></svg><svg x="55.5" y="295.5" width="189" height="30" class="TSP: ArrayListLong" fill="#ffffff"><g><rect width="100%" height="100%" stroke="none" fill="white" class="sc-kAyceB haGKns"></rect><text x="10" y="50%" dominant-baseline="middle" text-anchor="start" font-weight="normal" pointer-events="none">TSP: ArrayList&lt;Long&gt;</text></g></svg><svg x="55.5" y="325.5" width="189" height="30" class="MIS:ArrayListString" fill="#ffffff"><g><rect width="100%" height="100%" stroke="none" fill="white" class="sc-kAyceB haGKns"></rect><text x="10" y="50%" dominant-baseline="middle" text-anchor="start" font-weight="normal" pointer-events="none">MIS:ArrayList&lt;String&gt;</text></g></svg><svg x="505" y="75" width="70" height="40" class="Thread" fill="#ffffff"><g><rect width="100%" height="40" stroke="none" fill="white" class="sc-kAyceB haGKns"></rect><rect y="40" width="100%" height="0" stroke="none" fill="white" class="sc-kAyceB haGKns"></rect><svg height="40"><text x="50%" y="50%" dominant-baseline="middle" text-anchor="middle" font-weight="bold" pointer-events="none">Thread</text></svg><rect width="100%" height="100%" stroke="black" fill="none" class="sc-kAyceB izLLBO"></rect></g></svg><svg x="285" y="135" width="290" height="130" class="SerialThread" fill="#ffffff"><g><rect width="100%" height="40" stroke="none" fill="white" class="sc-kAyceB haGKns"></rect><rect y="40" width="100%" height="90" stroke="none" fill="white" class="sc-kAyceB haGKns"></rect><svg height="40"><text x="50%" y="50%" dominant-baseline="middle" text-anchor="middle" font-weight="bold" pointer-events="none">SerialThread</text></svg><rect width="100%" height="100%" stroke="black" fill="none" class="sc-kAyceB izLLBO"></rect><path d="M 0 40 H 290" stroke="black" fill="white" class="sc-iGgWBj fYmGgq"></path></g></svg><svg x="285.5" y="175.5" width="289" height="30" class="SerialThread(Port, Triad, Inter., Loops)" fill="#ffffff"><g><rect width="100%" height="100%" stroke="none" fill="white" class="sc-kAyceB haGKns"></rect><text x="10" y="50%" dominant-baseline="middle" text-anchor="start" font-weight="normal" pointer-events="none">SerialThread(Port, Triad, Inter., Loops)</text></g></svg><svg x="285.5" y="205.5" width="289" height="30" class="SerialThread(Port) [-byThread]" fill="#ffffff"><g><rect width="100%" height="100%" stroke="none" fill="white" class="sc-kAyceB haGKns"></rect><text x="10" y="50%" dominant-baseline="middle" text-anchor="start" font-weight="normal" pointer-events="none">SerialThread(Port) [-&gt;byThread]</text></g></svg><svg x="285.5" y="235.5" width="289" height="30" class="run()" fill="#ffffff"><g><rect width="100%" height="100%" stroke="none" fill="white" class="sc-kAyceB haGKns"></rect><text x="10" y="50%" dominant-baseline="middle" text-anchor="start" font-weight="normal" pointer-events="none">run()</text></g></svg><svg x="645" y="55" width="610" height="320" class="frontend" fill="#ffffff"><g><path d="M 0 10 V 0 H 40 V 10" stroke="black" fill="white" class="sc-iGgWBj fYmGgq" style="transform: scale(1);"></path><rect y="10" width="100%" height="310" stroke="black" fill="white" class="sc-kAyceB ldFMTf"></rect><text x="50%" y="20" dy="10" text-anchor="middle" font-weight="bold" pointer-events="none">frontend</text></g></svg><svg x="855" y="295" width="190" height="40" class="MainApplication" fill="#ffffff"><g><rect width="100%" height="40" stroke="none" fill="white" class="sc-kAyceB haGKns"></rect><rect y="40" width="100%" height="0" stroke="none" fill="white" class="sc-kAyceB haGKns"></rect><svg height="40"><text x="50%" y="50%" dominant-baseline="middle" text-anchor="middle" font-weight="bold" pointer-events="none">MainApplication</text></svg><rect width="100%" height="100%" stroke="black" fill="none" class="sc-kAyceB izLLBO"></rect></g></svg><svg x="865" y="95" width="170" height="40" class="ComboController" fill="#ffffff"><g><rect width="100%" height="40" stroke="none" fill="white" class="sc-kAyceB haGKns"></rect><rect y="40" width="100%" height="0" stroke="none" fill="white" class="sc-kAyceB haGKns"></rect><svg height="40"><text x="50%" y="50%" dominant-baseline="middle" text-anchor="middle" font-weight="bold" pointer-events="none">ComboController</text></svg><rect width="100%" height="100%" stroke="black" fill="none" class="sc-kAyceB izLLBO"></rect></g></svg><svg x="885" y="235" width="130" height="40" class="SceneControl" fill="#ffffff"><g><rect width="100%" height="40" stroke="none" fill="white" class="sc-kAyceB haGKns"></rect><rect y="40" width="100%" height="0" stroke="none" fill="white" class="sc-kAyceB haGKns"></rect><svg height="40"><text x="50%" y="50%" dominant-baseline="middle" text-anchor="middle" font-weight="bold" pointer-events="none">SceneControl</text></svg><rect width="100%" height="100%" stroke="black" fill="none" class="sc-kAyceB izLLBO"></rect></g></svg><svg x="955" y="175" width="150" height="40" class="UserController" fill="#ffffff"><g><rect width="100%" height="40" stroke="none" fill="white" class="sc-kAyceB haGKns"></rect><rect y="40" width="100%" height="0" stroke="none" fill="white" class="sc-kAyceB haGKns"></rect><svg height="40"><text x="50%" y="50%" dominant-baseline="middle" text-anchor="middle" font-weight="bold" pointer-events="none">UserController</text></svg><rect width="100%" height="100%" stroke="black" fill="none" class="sc-kAyceB izLLBO"></rect></g></svg><svg x="795" y="175" width="150" height="40" class="AdminController" fill="#ffffff"><g><rect width="100%" height="40" stroke="none" fill="white" class="sc-kAyceB haGKns"></rect><rect y="40" width="100%" height="0" stroke="none" fill="white" class="sc-kAyceB haGKns"></rect><svg height="40"><text x="50%" y="50%" dominant-baseline="middle" text-anchor="middle" font-weight="bold" pointer-events="none">AdminController</text></svg><rect width="100%" height="100%" stroke="black" fill="none" class="sc-kAyceB izLLBO"></rect></g></svg><svg x="275" y="415" width="740" height="230" class="terminal" fill="#ffffff"><g><path d="M 0 10 V 0 H 40 V 10" stroke="black" fill="white" class="sc-iGgWBj fYmGgq" style="transform: scale(1);"></path><rect y="10" width="100%" height="220" stroke="black" fill="white" class="sc-kAyceB ldFMTf"></rect><text x="50%" y="20" dy="10" text-anchor="middle" font-weight="bold" pointer-events="none">terminal</text></g></svg><svg x="405" y="475" width="530" height="160" class="Terminal" fill="#ffffff"><g><rect width="100%" height="40" stroke="none" fill="white" class="sc-kAyceB haGKns"></rect><rect y="40" width="100%" height="120" stroke="none" fill="white" class="sc-kAyceB haGKns"></rect><svg height="40"><text x="50%" y="50%" dominant-baseline="middle" text-anchor="middle" font-weight="bold" pointer-events="none">Terminal</text></svg><rect width="100%" height="100%" stroke="black" fill="none" class="sc-kAyceB izLLBO"></rect><path d="M 0 40 H 530" stroke="black" fill="white" class="sc-iGgWBj fYmGgq"></path></g></svg><svg x="405.5" y="515.5" width="529" height="30" class="terminal()" fill="#ffffff"><g><rect width="100%" height="100%" stroke="none" fill="white" class="sc-kAyceB haGKns"></rect><text x="10" y="50%" dominant-baseline="middle" text-anchor="start" font-weight="normal" pointer-events="none">terminal()</text></g></svg><svg x="405.5" y="545.5" width="529" height="30" class="startUserProcess(String, String)" fill="#ffffff"><g><rect width="100%" height="100%" stroke="none" fill="white" class="sc-kAyceB haGKns"></rect><text x="10" y="50%" dominant-baseline="middle" text-anchor="start" font-weight="normal" pointer-events="none">startUserProcess(String, String)</text></g></svg><svg x="405.5" y="575.5" width="529" height="30" class="initializeBlueprint()" fill="#ffffff"><g><rect width="100%" height="100%" stroke="none" fill="white" class="sc-kAyceB haGKns"></rect><text x="10" y="50%" dominant-baseline="middle" text-anchor="start" font-weight="normal" pointer-events="none">initializeBlueprint()</text></g></svg><svg x="405.5" y="605.5" width="529" height="30" class="saveBlueprintData(SensIn)" fill="#ffffff"><g><rect width="100%" height="100%" stroke="none" fill="white" class="sc-kAyceB haGKns"></rect><text x="10" y="50%" dominant-baseline="middle" text-anchor="start" font-weight="normal" pointer-events="none">saveBlueprintData(SensIn)</text></g></svg><svg x="25" y="675" width="1290" height="550" class="ground" fill="#ffffff"><g><path d="M 0 10 V 0 H 40 V 10" stroke="black" fill="white" class="sc-iGgWBj fYmGgq" style="transform: scale(1);"></path><rect y="10" width="100%" height="540" stroke="black" fill="white" class="sc-kAyceB ldFMTf"></rect><text x="50%" y="20" dy="10" text-anchor="middle" font-weight="bold" pointer-events="none">ground</text></g></svg><svg x="85" y="715" width="530" height="490" class="cpeeGate" fill="#ffffff"><g><path d="M 0 10 V 0 H 40 V 10" stroke="black" fill="white" class="sc-iGgWBj fYmGgq" style="transform: scale(1);"></path><rect y="10" width="100%" height="480" stroke="black" fill="white" class="sc-kAyceB ldFMTf"></rect><text x="50%" y="20" dy="10" text-anchor="middle" font-weight="bold" pointer-events="none">cpeeGate</text></g></svg><svg x="165" y="775" width="280" height="160" class="Gateway" fill="#ffffff"><g><rect width="100%" height="40" stroke="none" fill="white" class="sc-kAyceB haGKns"></rect><rect y="40" width="100%" height="120" stroke="none" fill="white" class="sc-kAyceB haGKns"></rect><svg height="40"><text x="50%" y="50%" dominant-baseline="middle" text-anchor="middle" font-weight="bold" pointer-events="none">Gateway</text></svg><rect width="100%" height="100%" stroke="black" fill="none" class="sc-kAyceB izLLBO"></rect><path d="M 0 40 H 280" stroke="black" fill="white" class="sc-iGgWBj fYmGgq"></path><path d="M 0 70 H 280" stroke="black" fill="white" class="sc-iGgWBj fYmGgq"></path></g></svg><svg x="165.5" y="815.5" width="279" height="30" class="preparedData: ArrayListString" fill="#ffffff"><g><rect width="100%" height="100%" stroke="none" fill="white" class="sc-kAyceB haGKns"></rect><text x="10" y="50%" dominant-baseline="middle" text-anchor="start" font-weight="normal" pointer-events="none">preparedData: ArrayList&lt;String&gt;</text></g></svg><svg x="165.5" y="845.5" width="279" height="30" class="pull(String)" fill="#ffffff"><g><rect width="100%" height="100%" stroke="none" fill="white" class="sc-kAyceB haGKns"></rect><text x="10" y="50%" dominant-baseline="middle" text-anchor="start" font-weight="normal" pointer-events="none">pull(String)</text></g></svg><svg x="165.5" y="875.5" width="279" height="30" class="typeOpener(String)" fill="#ffffff"><g><rect width="100%" height="100%" stroke="none" fill="white" class="sc-kAyceB haGKns"></rect><text x="10" y="50%" dominant-baseline="middle" text-anchor="start" font-weight="normal" pointer-events="none">typeOpener(String)</text></g></svg><svg x="165.5" y="905.5" width="279" height="30" class="getPreparedData(ArrayListString)" fill="#ffffff"><g><rect width="100%" height="100%" stroke="none" fill="white" class="sc-kAyceB haGKns"></rect><text x="10" y="50%" dominant-baseline="middle" text-anchor="start" font-weight="normal" pointer-events="none">getPreparedData(ArrayList&lt;String&gt;)</text></g></svg><svg x="155" y="955" width="320" height="240" class="ProcessDataPrep" fill="#ffffff"><g><rect width="100%" height="40" stroke="none" fill="white" class="sc-kAyceB haGKns"></rect><rect y="40" width="100%" height="200" stroke="none" fill="white" class="sc-kAyceB haGKns"></rect><svg height="40"><text x="50%" y="50%" dominant-baseline="middle" text-anchor="middle" font-weight="bold" pointer-events="none">ProcessDataPrep</text></svg><rect width="100%" height="100%" stroke="black" fill="none" class="sc-kAyceB izLLBO"></rect><path d="M 0 40 H 320" stroke="black" fill="white" class="sc-iGgWBj fYmGgq"></path><path d="M 0 80 H 320" stroke="black" fill="white" class="sc-iGgWBj fYmGgq"></path></g></svg><svg x="155.5" y="995.5" width="319" height="40" class="preparedData: ArrayListString" fill="#ffffff"><g><rect width="100%" height="100%" stroke="none" fill="white" class="sc-kAyceB haGKns"></rect><text x="10" y="50%" dominant-baseline="middle" text-anchor="start" font-weight="normal" pointer-events="none">preparedData: ArrayList&lt;String&gt;</text></g></svg><svg x="155.5" y="1035.5" width="319" height="40" class="dataModeling(ArrayListString, Short)" fill="#ffffff"><g><rect width="100%" height="100%" stroke="none" fill="white" class="sc-kAyceB haGKns"></rect><text x="10" y="50%" dominant-baseline="middle" text-anchor="start" font-weight="normal" pointer-events="none">dataModeling(ArrayList&lt;String&gt;, Short)</text></g></svg><svg x="155.5" y="1075.5" width="319" height="30" class="recursiveDataBuilder(ArrayListString)" fill="#ffffff"><g><rect width="100%" height="100%" stroke="none" fill="white" class="sc-kAyceB haGKns"></rect><text x="10" y="50%" dominant-baseline="middle" text-anchor="start" font-weight="normal" pointer-events="none">recursiveDataBuilder(ArrayList&lt;String&gt;)</text></g></svg><svg x="155.5" y="1105.5" width="319" height="30" class="patternMatcher(String, String)" fill="#ffffff"><g><rect width="100%" height="100%" stroke="none" fill="white" class="sc-kAyceB haGKns"></rect><text x="10" y="50%" dominant-baseline="middle" text-anchor="start" font-weight="normal" pointer-events="none">patternMatcher(String, String)</text></g></svg><svg x="155.5" y="1135.5" width="319" height="30" class="responsePurification(String)" fill="#ffffff"><g><rect width="100%" height="100%" stroke="none" fill="white" class="sc-kAyceB haGKns"></rect><text x="10" y="50%" dominant-baseline="middle" text-anchor="start" font-weight="normal" pointer-events="none">responsePurification(String)</text></g></svg><svg x="155.5" y="1165.5" width="319" height="30" class="accuracyAdaption(String)" fill="#ffffff"><g><rect width="100%" height="100%" stroke="none" fill="white" class="sc-kAyceB haGKns"></rect><text x="10" y="50%" dominant-baseline="middle" text-anchor="start" font-weight="normal" pointer-events="none">accuracyAdaption(String)</text></g></svg><svg x="885" y="1025" width="200" height="100" class="ccp" fill="#ffffff"><g><path d="M 0 10 V 0 H 40 V 10" stroke="black" fill="white" class="sc-iGgWBj fYmGgq" style="transform: scale(1);"></path><rect y="10" width="100%" height="90" stroke="black" fill="white" class="sc-kAyceB ldFMTf"></rect><text x="50%" y="20" dy="10" text-anchor="middle" font-weight="bold" pointer-events="none">ccp</text></g></svg><svg x="885" y="885" width="200" height="100" class="pm" fill="#ffffff"><g><path d="M 0 10 V 0 H 40 V 10" stroke="black" fill="white" class="sc-iGgWBj fYmGgq" style="transform: scale(1);"></path><rect y="10" width="100%" height="90" stroke="black" fill="white" class="sc-kAyceB ldFMTf"></rect><text x="50%" y="20" dy="10" text-anchor="middle" font-weight="bold" pointer-events="none">pm</text></g></svg><svg x="885" y="725" width="200" height="100" class="statistic" fill="#ffffff"><g><path d="M 0 10 V 0 H 40 V 10" stroke="black" fill="white" class="sc-iGgWBj fYmGgq" style="transform: scale(1);"></path><rect y="10" width="100%" height="90" stroke="black" fill="white" class="sc-kAyceB ldFMTf"></rect><text x="50%" y="20" dy="10" text-anchor="middle" font-weight="bold" pointer-events="none">statistic</text></g></svg><svg x="1035" y="585" width="230" height="40" class="blueprintData.txt (target file)" fill="#ffffff"><g><path d="M 0 10 V 0 H 40 V 10" stroke="black" fill="white" class="sc-iGgWBj fYmGgq" style="transform: scale(1);"></path><rect y="10" width="100%" height="30" stroke="black" fill="white" class="sc-kAyceB ldFMTf"></rect><text x="50%" y="20" dy="10" text-anchor="middle" font-weight="bold" pointer-events="none">blueprintData.txt (target file)</text></g></svg><svg x="900" y="135" width="10" height="41" class="" fill="#ffffff"><g><marker id="marker-3299018f-10b3-4f62-8897-f331f618c683" viewBox="0 0 30 30" markerWidth="30" markerHeight="30" refX="30" refY="15" orient="auto" markerUnits="strokeWidth" style="transform: scale(1);"><path d="M0,15 L15,22 L30,15 L15,8 z" stroke="black" fill="white" class="sc-iGgWBj fYmGgq"></path></marker><polyline points="5 40,5 0" stroke-width="1" marker-end="url(#marker-3299018f-10b3-4f62-8897-f331f618c683)" stroke="black" fill="none" class="sc-dcJsrY byrzoU"></polyline><text x="5" y="32" dx="5" text-anchor="start" pointer-events="none"></text><text x="5" y="31" dx="5" dy="10" text-anchor="start" pointer-events="none"></text><text x="5" y="32" dx="-5" text-anchor="end" pointer-events="none"></text><text x="5" y="31" dx="-5" dy="10" text-anchor="end" pointer-events="none"></text></g></svg><svg x="990" y="135" width="10" height="41" class="" fill="#ffffff"><g><marker id="marker-b18b9cc8-2471-4932-9679-cc5be2fe1a9d" viewBox="0 0 30 30" markerWidth="30" markerHeight="30" refX="30" refY="15" orient="auto" markerUnits="strokeWidth" style="transform: scale(1);"><path d="M0,15 L15,22 L30,15 L15,8 z" stroke="black" fill="white" class="sc-iGgWBj fYmGgq"></path></marker><polyline points="5 40,5 0" stroke-width="1" marker-end="url(#marker-b18b9cc8-2471-4932-9679-cc5be2fe1a9d)" stroke="black" fill="none" class="sc-dcJsrY byrzoU"></polyline><text x="5" y="32" dx="5" text-anchor="start" pointer-events="none"></text><text x="5" y="31" dx="5" dy="10" text-anchor="start" pointer-events="none"></text><text x="5" y="32" dx="-5" text-anchor="end" pointer-events="none"></text><text x="5" y="31" dx="-5" dy="10" text-anchor="end" pointer-events="none"></text></g></svg><svg x="980" y="215" width="10" height="20" class="" fill="#ffffff"><g><polyline points="5 20,5 0" stroke-width="1" marker-end="url(#marker-9d114e23-457c-486a-a00b-1444e4b8a727)" stroke="black" fill="none" class="sc-dcJsrY byrzoU"></polyline><text x="5" y="12" dx="5" text-anchor="start" pointer-events="none"></text><text x="5" y="8" dx="5" dy="10" text-anchor="start" pointer-events="none"></text><text x="5" y="12" dx="-5" text-anchor="end" pointer-events="none"></text><text x="5" y="8" dx="-5" dy="10" text-anchor="end" pointer-events="none"></text></g></svg><svg x="910" y="215" width="10" height="20" class="" fill="#ffffff"><g><polyline points="5 20,5 0" stroke-width="1" marker-end="url(#marker-81c6addb-dee9-4e71-8318-733393ad0ea5)" stroke="black" fill="none" class="sc-dcJsrY byrzoU"></polyline><text x="5" y="12" dx="5" text-anchor="start" pointer-events="none"></text><text x="5" y="8" dx="5" dy="10" text-anchor="start" pointer-events="none"></text><text x="5" y="12" dx="-5" text-anchor="end" pointer-events="none"></text><text x="5" y="8" dx="-5" dy="10" text-anchor="end" pointer-events="none"></text></g></svg><svg x="820.359375" y="335" width="79.640625" height="150.65625" class="" fill="#ffffff"><g><polyline points="74.640625 0,74.640625 140" stroke-width="1" marker-end="url(#marker-cec6a9ed-5587-485d-a9eb-ff09d08588e1)" stroke="black" fill="none" class="sc-dcJsrY byrzoU"></polyline><text x="74.640625" y="8" dx="5" dy="10" text-anchor="start" pointer-events="none"></text><text x="74.640625" y="132" dx="5" text-anchor="start" pointer-events="none"></text><text x="74.640625" y="8" dx="-5" dy="10" text-anchor="end" pointer-events="none">Terminal()</text><text x="74.640625" y="132" dx="-5" text-anchor="end" pointer-events="none">main()</text></g></svg><svg x="616.6875" y="185" width="178.3125" height="300.65625" class="" fill="#ffffff"><g><polyline points="178.3125 10,53.3125 10,53.3125 290" stroke-width="1" marker-end="url(#marker-4911eea1-0826-471b-8c14-a59fba32751a)" stroke="black" fill="none" class="sc-dcJsrY byrzoU"></polyline><text x="170.3125" y="10" dy="21" text-anchor="end" pointer-events="none"></text><text x="53.3125" y="282" dx="5" text-anchor="start" pointer-events="none"></text><text x="170.3125" y="10" dy="-10" text-anchor="end" pointer-events="none">initializeBlueprint()</text><text x="53.3125" y="282" dx="-5" text-anchor="end" pointer-events="none">setup()</text></g></svg><svg x="935" y="185" width="309.828125" height="391" class="" fill="#ffffff"><g><polyline points="170 10,210 10,210 370,0 370" stroke-width="1" marker-end="url(#marker-db51ddcd-b53b-43a2-8456-39847aa3e7cf)" stroke="black" fill="none" class="sc-dcJsrY byrzoU"></polyline><text x="178" y="10" dy="21" text-anchor="start" pointer-events="none"></text><text x="8" y="370" dy="21" text-anchor="start" pointer-events="none"></text><text x="178" y="10" dy="-10" text-anchor="start" pointer-events="none">startUserProcess()</text><text x="8" y="370" dy="-10" text-anchor="start" pointer-events="none">process()</text></g></svg><svg x="168.171875" y="545" width="236.828125" height="240.65625" class="" fill="#ffffff"><g><polyline points="136.828125 230,136.828125 10,236.828125 10" stroke-width="1" marker-end="url(#marker-db9873cb-37d0-4442-adf3-634675ebfcd3)" stroke="black" fill="none" class="sc-dcJsrY byrzoU"></polyline><text x="136.828125" y="222" dx="5" text-anchor="start" pointer-events="none"></text><text x="228.828125" y="10" dy="21" text-anchor="end" pointer-events="none"></text><text x="136.828125" y="222" dx="-5" text-anchor="end" pointer-events="none">startUserProcess()</text><text x="228.828125" y="10" dy="-10" text-anchor="end" pointer-events="none">FileProcessing()</text></g></svg><svg x="425" y="85" width="80" height="50" class="" fill="#ffffff"><g><marker id="marker-7fa43256-86f1-4605-acce-3a5ebc8e9add" viewBox="0 0 30 30" markerWidth="22" markerHeight="30" refX="30" refY="15" orient="auto" markerUnits="strokeWidth" style="transform: scale(1);"><path d="M0,1 L0,29 L30,15 z" stroke="black" fill="white" class="sc-iGgWBj fYmGgq"></path></marker><polyline points="5 50,5 10,80 10" stroke-width="1" marker-end="url(#marker-7fa43256-86f1-4605-acce-3a5ebc8e9add)" stroke="black" fill="none" class="sc-dcJsrY byrzoU"></polyline><text x="5" y="42" dx="5" text-anchor="start" pointer-events="none"></text><text x="49" y="10" dy="21" text-anchor="end" pointer-events="none"></text><text x="5" y="42" dx="-5" text-anchor="end" pointer-events="none"></text><text x="49" y="10" dy="-10" text-anchor="end" pointer-events="none"></text></g></svg><svg x="245" y="190" width="40" height="31" class="" fill="#ffffff"><g><polyline points="0 10,40 10" stroke-width="1" marker-end="url(#marker-09c355f0-8148-4975-bb4e-9cac3996d3d6)" stroke="black" fill="none" class="sc-dcJsrY byrzoU"></polyline><text x="8" y="10" dy="21" text-anchor="start" pointer-events="none"></text><text x="32" y="10" dy="21" text-anchor="end" pointer-events="none"></text><text x="8" y="10" dy="-10" text-anchor="start" pointer-events="none"></text><text x="32" y="10" dy="-10" text-anchor="end" pointer-events="none"></text></g></svg><svg x="475" y="265" width="10" height="20" class="" fill="#ffffff"><g><polyline points="5 0,5 20" stroke-width="1" marker-end="url(#marker-74bff579-fbff-4632-afb9-a830ada4b0fa)" stroke="black" fill="none" class="sc-dcJsrY byrzoU"></polyline><text x="5" y="8" dx="5" dy="10" text-anchor="start" pointer-events="none"></text><text x="5" y="12" dx="5" text-anchor="start" pointer-events="none"></text><text x="5" y="8" dx="-5" dy="10" text-anchor="end" pointer-events="none"></text><text x="5" y="12" dx="-5" text-anchor="end" pointer-events="none"></text></g></svg><svg x="199.796875" y="365" width="285.203125" height="120.65625" class="" fill="#ffffff"><g><polyline points="280.203125 0,280.203125 110" stroke-width="1" marker-end="url(#marker-4eb37a32-9c0c-4a84-96b2-ca85f12913f4)" stroke="black" fill="none" class="sc-dcJsrY byrzoU"></polyline><text x="280.203125" y="8" dx="5" dy="10" text-anchor="start" pointer-events="none"></text><text x="280.203125" y="102" dx="5" text-anchor="start" pointer-events="none"></text><text x="280.203125" y="8" dx="-5" dy="10" text-anchor="end" pointer-events="none">startUserProcess() / initializeBlueprint()</text><text x="280.203125" y="102" dx="-5" text-anchor="end" pointer-events="none">HardwareGate()</text></g></svg><svg x="935" y="595" width="100" height="31" class="" fill="#ffffff"><g><polyline points="0 10,100 10" stroke-width="1" marker-end="url(#marker-c4ad85b4-7a4b-417b-a8f3-eed27ff75242)" stroke="black" fill="none" class="sc-dcJsrY byrzoU"></polyline><text x="8" y="10" dy="21" text-anchor="start" pointer-events="none"></text><text x="92" y="10" dy="21" text-anchor="end" pointer-events="none"></text><text x="8" y="10" dy="-10" text-anchor="start" pointer-events="none"></text><text x="92" y="10" dy="-10" text-anchor="end" pointer-events="none"></text></g></svg><svg x="420" y="635" width="139.15625" height="150.65625" class="" fill="#ffffff"><g><polyline points="5 140,5 0" stroke-width="1" marker-end="url(#marker-38fa3d07-a66b-44bf-b3f9-f24238d3fe6a)" stroke="black" fill="none" class="sc-dcJsrY byrzoU"></polyline><text x="5" y="132" dx="5" text-anchor="start" pointer-events="none">initializeBlueprint()</text><text x="5" y="8" dx="5" dy="10" text-anchor="start" pointer-events="none">FileProcessing()</text><text x="5" y="132" dx="-5" text-anchor="end" pointer-events="none"></text><text x="5" y="8" dx="-5" dy="10" text-anchor="end" pointer-events="none"></text></g></svg><svg x="115" y="845" width="50" height="251" class="" fill="#ffffff"><g><polyline points="40 230,0 230,0 10,50 10" stroke-width="1" marker-end="url(#marker-a2252d8a-fc2b-45ef-b7ec-b3efa3521059)" stroke="black" fill="none" class="sc-dcJsrY byrzoU"></polyline><text x="32" y="230" dy="21" text-anchor="end" pointer-events="none"></text><text x="42" y="10" dy="21" text-anchor="end" pointer-events="none"></text><text x="32" y="230" dy="-10" text-anchor="end" pointer-events="none"></text><text x="42" y="10" dy="-10" text-anchor="end" pointer-events="none"></text></g></svg><svg x="945" y="275" width="10" height="20" class="" fill="#ffffff"><g><polyline points="5 20,5 0" stroke-width="1" marker-end="url(#marker-e92dba74-c091-44d2-8541-7ca327a924cb)" stroke="black" fill="none" class="sc-dcJsrY byrzoU"></polyline><text x="5" y="12" dx="5" text-anchor="start" pointer-events="none"></text><text x="5" y="8" dx="5" dy="10" text-anchor="start" pointer-events="none"></text><text x="5" y="12" dx="-5" text-anchor="end" pointer-events="none"></text><text x="5" y="8" dx="-5" dy="10" text-anchor="end" pointer-events="none"></text></g></svg></svg>